<svg width="176" height="24" xmlns="http://www.w3.org/2000/svg" xmlns:xlink="http://www.w3.org/1999/xlink">
    <defs>
        <radialGradient cx="41.567%" cy="36.907%" fx="41.567%" fy="36.907%" r="94.707%" id="a">
            <stop stop-color="#27ae91" offset="0%"/>
            <stop stop-color="#27ae91" offset="17.201%"/>
            <stop stop-color="#27ae91" offset="60.719%"/>
            <stop stop-color="#27ae91" offset="100%"/>
        </radialGradient>
        <radialGradient cx="9.346%" cy="50%" fx="9.346%" fy="50%" r="37.704%" id="c">
            <stop stop-color="#FFF" stop-opacity=".5" offset="0%"/>
            <stop stop-color="#27ae91" stop-opacity="0" offset="100%"/>
        </radialGradient>
        <radialGradient cx="50%" cy="50%" fx="50%" fy="50%" r="1028.633%"
                        gradientTransform="matrix(.09645 .15042 -.01467 .98862 .46 -.07)" id="d">
            <stop stop-color="#27ae91" offset="0%"/>
            <stop stop-color="#27ae91" offset="17.201%"/>
            <stop stop-color="#27ae91" offset="60.719%"/>
            <stop stop-color="#27ae91" offset="100%"/>
        </radialGradient>
        <radialGradient cx="9.346%" cy="50%" fx="9.346%" fy="50%" r="74.897%"
                        gradientTransform="scale(.09756 1) rotate(29.751 .526 2.127)" id="f">
            <stop stop-color="#FFF" stop-opacity=".5" offset="0%"/>
            <stop stop-color="#27ae91" stop-opacity="0" offset="100%"/>
        </radialGradient>
        <circle id="b" cx="171" cy="5" r="5"/>
        <path
                d="M16.887 8.2l-6.468 8.652v6.949H6.425v-6.949L0 8.199h4.493L8.4 13.621l3.95-5.422h4.537zm.713 15.6V8.2h10.874v3.142h-6.99v2.965h6.556v3.12h-6.555v3.231h6.99v3.143H17.6zm13.165 0V8.2h3.994v12.303h6.511v3.298H30.765zm12.622 0V8.2h3.994v12.303h6.512v3.298H43.387zm19.004.2c-1.562 0-2.92-.328-4.07-.985a6.662 6.662 0 01-2.658-2.788c-.623-1.203-.934-2.615-.934-4.238 0-1.623.311-3.036.934-4.238.622-1.202 1.508-2.128 2.658-2.777 1.15-.65 2.508-.974 4.07-.974 1.563 0 2.92.325 4.07.974a6.525 6.525 0 012.648 2.777c.615 1.202.923 2.615.923 4.238 0 1.623-.311 3.035-.934 4.238a6.662 6.662 0 01-2.658 2.788c-1.15.657-2.5.985-4.049.985zm0-3.12c1.158 0 2.062-.417 2.714-1.25.65-.834.976-2.048.976-3.641s-.329-2.803-.987-3.63c-.659-.826-1.56-1.239-2.703-1.239-1.157 0-2.062.41-2.713 1.229-.651.818-.977 2.032-.977 3.64s.326 2.825.977 3.651c.651.827 1.556 1.24 2.713 1.24zM91.033 8.2h3.777l-5.47 15.6h-3.17l-3.233-9.36-3.278 9.36h-3.19L71.02 8.2h4.059l3.17 9.891L81.677 8.2h2.756l3.278 10.07 3.32-10.07zm19.156 0h1.454v15.6h-1.628l.022-12.082-4.97 9.604h-1.26l-4.992-9.516.022 11.995h-1.65V8.199h1.476l5.796 11.309 5.73-11.309zm5.46 15.6V8.2h9.68v1.504h-7.922v5.422h7.488v1.505h-7.488v5.665h7.922v1.505h-9.68zm12.839-15.6h5.144c2.446 0 4.338.674 5.676 2.024 1.339 1.35 2.008 3.272 2.008 5.765s-.669 4.419-2.008 5.776c-1.338 1.357-3.23 2.036-5.676 2.036h-5.144V8.199zm5.036 14.052c3.965 0 5.947-2.088 5.947-6.263 0-4.16-1.982-6.24-5.947-6.24h-3.256v12.503h3.256zm12.991-14.053v15.602h-1.78V8.199h1.78zm10.756 0L164 23.801h-1.802l-1.693-4.006h-7.987l-1.694 4.006h-1.823l6.729-15.602h1.541zm-.76 2.103l-3.364 7.988h6.729l-3.365-7.988z"
                id="e"/>
    </defs>
    <g fill="none" fill-rule="evenodd">
        <use fill="url(#a)" xlink:href="#b"/>
        <use fill="url(#c)" xlink:href="#b"/>
        <use fill="url(#d)" xlink:href="#e"/>
        <use fill="url(#f)" xlink:href="#e"/>
    </g>
</svg>